<?xml version="1.0" encoding="utf-8"?>
<!-- Generator: Adobe Illustrator 22.0.1, SVG Export Plug-In . SVG Version: 6.00 Build 0)  -->
<svg version="1.1" id="圖層_1" focusable="false" xmlns="http://www.w3.org/2000/svg" xmlns:xlink="http://www.w3.org/1999/xlink"
	 x="0px" y="0px" viewBox="0 0 448 512" style="enable-background:new 0 0 448 512;" xml:space="preserve">
<style type="text/css">
	.st0{fill:#898989;}
</style>
<path class="st0" d="M16.5,182.3h416c8.8,0,16-5.6,16-12.5v-31.3c0-6.9-7.2-12.5-16-12.5h-416c-8.8,0-16,5.6-16,12.5v31.3
	C0.5,176.7,7.7,182.3,16.5,182.3z"/>
<path class="st0" d="M16,384.3h416c8.8,0,16-5.6,16-12.5v-31.3c0-6.9-7.2-12.5-16-12.5H16c-8.8,0-16,5.6-16,12.5v31.3
	C0,378.7,7.2,384.3,16,384.3z"/>
</svg>
