<svg id="圖層_1" data-name="圖層 1" xmlns="http://www.w3.org/2000/svg" viewBox="0 0 434.58 201.28"><defs><style>.cls-1{fill:#898989;}</style></defs><title>line</title><path class="cls-1" d="M421,153.92H13.82C6.36,153.92.25,159.34.25,166v24.09c0,6.63,6.11,12.05,13.57,12.05H421c7.47,0,13.57-5.42,13.57-12.05V166C434.58,159.34,428.48,153.92,421,153.92Z" transform="translate(0 -0.83)"/><path class="cls-1" d="M420.76.83H13.57C6.11.83,0,6.25,0,12.87V37C0,43.59,6.11,49,13.57,49H420.76c7.47,0,13.57-5.43,13.57-12.05V12.87C434.33,6.25,428.23.83,420.76.83Z" transform="translate(0 -0.83)"/></svg>